<svg width="158" height="53" viewBox="0 0 158 53" fill="none" xmlns="http://www.w3.org/2000/svg">
<g clip-path="url(#clip0_202_4)">
<g opacity="0.95">
<path d="M85.7065 57.4174C93.2282 56.912 98.9161 50.4047 98.4107 42.883C97.9052 35.3612 91.398 29.6734 83.8762 30.1788C76.3545 30.6842 70.6667 37.1915 71.1721 44.7132C71.6775 52.2349 78.1848 57.9228 85.7065 57.4174Z" fill="white"/>
<path d="M104.64 48.3276C112.162 47.8222 117.85 41.3149 117.344 33.7932C116.839 26.2715 110.332 20.5836 102.81 21.089C95.2881 21.5944 89.6003 28.1017 90.1057 35.6234C90.6111 43.1452 97.1184 48.833 104.64 48.3276Z" fill="white"/>
<path d="M105.685 63.8925C113.207 63.3871 118.895 56.8798 118.389 49.3581C117.884 41.8363 111.377 36.1485 103.855 36.6539C96.3331 37.1593 90.6452 43.6666 91.1507 51.1883C91.6561 58.71 98.1633 64.3979 105.685 63.8925Z" fill="white"/>
<path d="M121.763 51.0858C129.285 50.5804 134.973 44.0731 134.467 36.5514C133.962 29.0297 127.455 23.3418 119.933 23.8472C112.411 24.3526 106.723 30.8599 107.229 38.3816C107.734 45.9034 114.241 51.5912 121.763 51.0858Z" fill="white"/>
<path d="M129.12 63.6208C136.642 63.1154 142.33 56.6081 141.824 49.0864C141.319 41.5646 134.812 35.8768 127.29 36.3822C119.768 36.8876 114.08 43.3949 114.586 50.9166C115.091 58.4383 121.598 64.1262 129.12 63.6208Z" fill="white"/>
<path d="M142.778 53.5825C150.3 53.0771 155.988 46.5698 155.482 39.0481C154.977 31.5263 148.47 25.8385 140.948 26.3439C133.426 26.8493 127.738 33.3566 128.244 40.8783C128.749 48.4 135.256 54.0879 142.778 53.5825Z" fill="white"/>
</g>
<g opacity="0.95">
<path d="M17.6133 69.6733C25.135 69.1679 30.8229 62.6606 30.3175 55.1389C29.8121 47.6171 23.3048 41.9293 15.783 42.4347C8.26132 42.9401 2.57347 49.4474 3.07888 56.9691C3.58429 64.4908 10.0916 70.1787 17.6133 69.6733Z" fill="white"/>
<path d="M36.5465 60.5835C44.0683 60.0781 49.7561 53.5708 49.2507 46.0491C48.7453 38.5273 42.238 32.8395 34.7163 33.3449C27.1946 33.8503 21.5067 40.3576 22.0121 47.8793C22.5175 55.401 29.0248 61.0889 36.5465 60.5835Z" fill="white"/>
<path d="M37.5923 76.1484C45.114 75.643 50.8019 69.1357 50.2965 61.614C49.7911 54.0922 43.2838 48.4044 35.7621 48.9098C28.2403 49.4152 22.5525 55.9225 23.0579 63.4442C23.5633 70.9659 30.0706 76.6538 37.5923 76.1484Z" fill="white"/>
<path d="M53.6699 63.3417C61.1916 62.8363 66.8794 56.329 66.374 48.8073C65.8686 41.2855 59.3614 35.5977 51.8396 36.1031C44.3179 36.6085 38.6301 43.1158 39.1355 50.6375C39.6409 58.1592 46.1481 63.8471 53.6699 63.3417Z" fill="white"/>
<path d="M61.0268 75.8767C68.5485 75.3713 74.2364 68.864 73.731 61.3423C73.2256 53.8205 66.7183 48.1327 59.1966 48.6381C51.6748 49.1435 45.987 55.6508 46.4924 63.1725C46.9978 70.6942 53.5051 76.3821 61.0268 75.8767Z" fill="white"/>
<path d="M74.6846 65.8385C82.2063 65.3331 87.8942 58.8258 87.3888 51.3041C86.8833 43.7823 80.3761 38.0945 72.8543 38.5999C65.3326 39.1053 59.6448 45.6126 60.1502 53.1343C60.6556 60.656 67.1629 66.3439 74.6846 65.8385Z" fill="white"/>
</g>
<g opacity="0.6">
<path d="M97.5471 39.771C105.069 39.2656 110.757 32.7583 110.251 25.2366C109.746 17.7148 103.239 12.027 95.7169 12.5324C88.1952 13.0378 82.5073 19.5451 83.0127 27.0668C83.5181 34.5885 90.0254 40.2764 97.5471 39.771Z" fill="white"/>
<path d="M116.48 30.6812C124.002 30.1758 129.69 23.6685 129.184 16.1468C128.679 8.62504 122.172 2.93719 114.65 3.4426C107.128 3.94801 101.44 10.4553 101.946 17.977C102.451 25.4987 108.958 31.1866 116.48 30.6812Z" fill="white"/>
<path d="M117.526 46.2461C125.048 45.7407 130.736 39.2334 130.23 31.7117C129.725 24.19 123.218 18.5021 115.696 19.0075C108.174 19.5129 102.486 26.0202 102.992 33.5419C103.497 41.0637 110.004 46.7515 117.526 46.2461Z" fill="white"/>
<path d="M133.604 33.4394C141.126 32.934 146.814 26.4267 146.308 18.905C145.803 11.3833 139.296 5.6954 131.774 6.20081C124.252 6.70622 118.564 13.2135 119.07 20.7352C119.575 28.257 126.082 33.9448 133.604 33.4394Z" fill="white"/>
<path d="M140.961 45.9744C148.483 45.469 154.171 38.9617 153.665 31.44C153.16 23.9182 146.653 18.2304 139.131 18.7358C131.609 19.2412 125.921 25.7485 126.427 33.2702C126.932 40.7919 133.439 46.4798 140.961 45.9744Z" fill="white"/>
<path d="M154.618 35.9362C162.14 35.4308 167.828 28.9235 167.322 21.4018C166.817 13.88 160.31 8.1922 152.788 8.69761C145.266 9.20302 139.578 15.7103 140.084 23.232C140.589 30.7537 147.096 36.4416 154.618 35.9362Z" fill="white"/>
</g>
<g opacity="0.6">
<path d="M40.0513 61.4877C47.5657 60.8838 53.1679 54.3027 52.5641 46.7882C51.9603 39.2737 45.3792 33.6716 37.8647 34.2754C30.3502 34.8792 24.748 41.4603 25.3518 48.9748C25.9556 56.4893 32.5368 62.0915 40.0513 61.4877Z" fill="white"/>
<path d="M58.8639 52.151C66.3784 51.5471 71.9806 44.966 71.3768 37.4515C70.7729 29.937 64.1918 24.3349 56.6773 24.9387C49.1628 25.5425 43.5607 32.1236 44.1645 39.6381C44.7683 47.1526 51.3494 52.7548 58.8639 52.151Z" fill="white"/>
<path d="M60.1134 67.7008C67.6278 67.0969 73.23 60.5158 72.6262 53.0013C72.0224 45.4869 65.4412 39.8847 57.9268 40.4885C50.4123 41.0923 44.8101 47.6734 45.4139 55.1879C46.0177 62.7024 52.5989 68.3046 60.1134 67.7008Z" fill="white"/>
<path d="M76.022 54.6847C83.5364 54.0809 89.1386 47.4998 88.5348 39.9853C87.931 32.4708 81.3499 26.8686 73.8354 27.4725C66.3209 28.0763 60.7187 34.6574 61.3225 42.1719C61.9264 49.6864 68.5075 55.2886 76.022 54.6847Z" fill="white"/>
<path d="M83.5424 67.1224C91.0568 66.5185 96.659 59.9374 96.0552 52.4229C95.4514 44.9085 88.8702 39.3063 81.3558 39.9101C73.8413 40.5139 68.2391 47.095 68.8429 54.6095C69.4467 62.124 76.0279 67.7262 83.5424 67.1224Z" fill="white"/>
<path d="M97.0675 56.9062C104.582 56.3024 110.184 49.7213 109.58 42.2068C108.977 34.6923 102.395 29.0901 94.8809 29.694C87.3665 30.2978 81.7643 36.8789 82.3681 44.3934C82.9719 51.9079 89.553 57.5101 97.0675 56.9062Z" fill="white"/>
</g>
</g>
<defs>
<clipPath id="clip0_202_4">
<rect width="158" height="53" fill="white"/>
</clipPath>
</defs>
</svg>
