<svg width="80" height="52" viewBox="0 0 80 52" fill="none" xmlns="http://www.w3.org/2000/svg">
<g clip-path="url(#clip0_203_2)">
<path d="M12.95 13.5L13.4767 14.9233L14.9 15.45L13.4767 15.9767L12.95 17.4L12.4233 15.9767L11 15.45L12.4233 14.9233L12.95 13.5Z" fill="#DEE5F3"/>
<path d="M36.35 23.9L36.8766 25.3233L38.3 25.85L36.8766 26.3767L36.35 27.8L35.8233 26.3767L34.4 25.85L35.8233 25.3233L36.35 23.9Z" fill="#DEE5F3"/>
<path d="M18.15 47.3L18.6766 48.7233L20.1 49.25L18.6766 49.7767L18.15 51.2L17.6233 49.7767L16.2 49.25L17.6233 48.7233L18.15 47.3Z" fill="#DEE5F3"/>
<path d="M24.65 27.8L24.8256 28.2744L25.3 28.45L24.8256 28.6256L24.65 29.1L24.4744 28.6256L24 28.45L24.4744 28.2744L24.65 27.8Z" fill="#DEE5F3"/>
<path d="M14.25 36.9L14.4255 37.3744L14.9 37.55L14.4255 37.7256L14.25 38.2L14.0744 37.7256L13.6 37.55L14.0744 37.3744L14.25 36.9Z" fill="#DEE5F3"/>
<path d="M28.875 49.9L29.1383 50.6117L29.85 50.875L29.1383 51.1383L28.875 51.85L28.6116 51.1383L27.9 50.875L28.6116 50.6117L28.875 49.9Z" fill="#DEE5F3"/>
<g filter="url(#filter0_f_203_2)">
<path d="M11.975 23.9L12.2383 24.6117L12.95 24.875L12.2383 25.1383L11.975 25.85L11.7117 25.1383L11 24.875L11.7117 24.6117L11.975 23.9Z" fill="#DEE5F3"/>
</g>
<path d="M6.44999 43.4L6.62555 43.8744L7.09999 44.05L6.62555 44.2256L6.44999 44.7L6.27443 44.2256L5.79999 44.05L6.27443 43.8744L6.44999 43.4Z" fill="#DEE5F3"/>
<path d="M38.95 40.8L39.1255 41.2744L39.6 41.45L39.1255 41.6256L38.95 42.1L38.7744 41.6256L38.3 41.45L38.7744 41.2744L38.95 40.8Z" fill="#DEE5F3"/>
<path d="M27.25 7L27.4255 7.47444L27.9 7.65L27.4255 7.82556L27.25 8.3L27.0744 7.82556L26.6 7.65L27.0744 7.47444L27.25 7Z" fill="#DEE5F3"/>
<path d="M1.24998 27.8L1.42553 28.2744L1.89998 28.45L1.42553 28.6256L1.24998 29.1L1.07442 28.6256L0.599976 28.45L1.07442 28.2744L1.24998 27.8Z" fill="#DEE5F3"/>
<path d="M46.75 0.5L47.2767 1.92332L48.7 2.45L47.2767 2.97668L46.75 4.4L46.2233 2.97668L44.8 2.45L46.2233 1.92332L46.75 0.5Z" fill="#DEE5F3"/>
<path d="M76.65 13.5L77.1766 14.9233L78.6 15.45L77.1766 15.9767L76.65 17.4L76.1233 15.9767L74.7 15.45L76.1233 14.9233L76.65 13.5Z" fill="#DEE5F3"/>
<path d="M58.45 43.4L58.9767 44.8233L60.4 45.35L58.9767 45.8767L58.45 47.3L57.9233 45.8767L56.5 45.35L57.9233 44.8233L58.45 43.4Z" fill="#DEE5F3"/>
<path d="M64.95 17.4L65.1255 17.8744L65.6 18.05L65.1255 18.2256L64.95 18.7L64.7744 18.2256L64.3 18.05L64.7744 17.8744L64.95 17.4Z" fill="#DEE5F3"/>
<path d="M59.75 31.7L59.9255 32.1744L60.4 32.35L59.9255 32.5256L59.75 33L59.5744 32.5256L59.1 32.35L59.5744 32.1744L59.75 31.7Z" fill="#DEE5F3"/>
<path d="M66.575 25.2L66.8383 25.9117L67.55 26.175L66.8383 26.4383L66.575 27.15L66.3116 26.4383L65.6 26.175L66.3116 25.9117L66.575 25.2Z" fill="#DEE5F3"/>
<g filter="url(#filter1_f_203_2)">
<path d="M52.275 13.5L52.5383 14.2117L53.25 14.475L52.5383 14.7383L52.275 15.45L52.0116 14.7383L51.3 14.475L52.0116 14.2117L52.275 13.5Z" fill="#DEE5F3"/>
</g>
<g filter="url(#filter2_f_203_2)">
<path d="M46.75 31.7L46.9255 32.1744L47.4 32.35L46.9255 32.5256L46.75 33L46.5744 32.5256L46.1 32.35L46.5744 32.1744L46.75 31.7Z" fill="#DEE5F3"/>
</g>
<path d="M79.25 30.4L79.4255 30.8744L79.9 31.05L79.4255 31.2256L79.25 31.7L79.0744 31.2256L78.6 31.05L79.0744 30.8744L79.25 30.4Z" fill="#DEE5F3"/>
<path d="M72.75 4.39999L72.9255 4.87443L73.4 5.04999L72.9255 5.22555L72.75 5.69999L72.5744 5.22555L72.1 5.04999L72.5744 4.87443L72.75 4.39999Z" fill="#DEE5F3"/>
<path d="M41.55 17.4L41.7255 17.8744L42.2 18.05L41.7255 18.2256L41.55 18.7L41.3744 18.2256L40.9 18.05L41.3744 17.8744L41.55 17.4Z" fill="#DEE5F3"/>
</g>
<defs>
<filter id="filter0_f_203_2" x="10.74" y="23.64" width="2.47001" height="2.47" filterUnits="userSpaceOnUse" color-interpolation-filters="sRGB">
<feFlood flood-opacity="0" result="BackgroundImageFix"/>
<feBlend mode="normal" in="SourceGraphic" in2="BackgroundImageFix" result="shape"/>
<feGaussianBlur stdDeviation="0.13" result="effect1_foregroundBlur_203_2"/>
</filter>
<filter id="filter1_f_203_2" x="51.04" y="13.24" width="2.47001" height="2.47" filterUnits="userSpaceOnUse" color-interpolation-filters="sRGB">
<feFlood flood-opacity="0" result="BackgroundImageFix"/>
<feBlend mode="normal" in="SourceGraphic" in2="BackgroundImageFix" result="shape"/>
<feGaussianBlur stdDeviation="0.13" result="effect1_foregroundBlur_203_2"/>
</filter>
<filter id="filter2_f_203_2" x="45.84" y="31.44" width="1.81999" height="1.82" filterUnits="userSpaceOnUse" color-interpolation-filters="sRGB">
<feFlood flood-opacity="0" result="BackgroundImageFix"/>
<feBlend mode="normal" in="SourceGraphic" in2="BackgroundImageFix" result="shape"/>
<feGaussianBlur stdDeviation="0.13" result="effect1_foregroundBlur_203_2"/>
</filter>
<clipPath id="clip0_203_2">
<rect width="80" height="52" fill="white"/>
</clipPath>
</defs>
</svg>
